WARNING: SVG input document uses 8 flow text elements, which won't render on browsers!
<?xml version="1.0" encoding="UTF-8"?>
<!-- Created with Inkscape (http://www.inkscape.org/) -->
<svg width="60mm" height="211mm" version="1.1" viewBox="0 0 60.00014 211.00037" xmlns="http://www.w3.org/2000/svg" xmlns:cc="http://creativecommons.org/ns#" xmlns:dc="http://purl.org/dc/elements/1.1/" xmlns:osb="http://www.openswatchbook.org/uri/2009/osb" xmlns:rdf="http://www.w3.org/1999/02/22-rdf-syntax-ns#" xmlns:xlink="http://www.w3.org/1999/xlink">
 <defs>
  <meshgradient id="meshgradient6529" x="-1158.3335" y="284.54562" gradientTransform="matrix(.84865 0 0 .84865 458.65 227.69)" gradientUnits="userSpaceOnUse">
   <meshrow>
    <meshpatch>
     <stop stop-color="#ffff4a" path="c 195.024,0  390.048,0  585.072,0"/>
     <stop stop-color="#ffff4a" path="c 0,213.776  5.79711,378.401  -24.4353,593.765"/>
     <stop stop-color="#ffffdb" path="c -179.112,36.5959  -365.616,47.5618  -560.64,47.5618"/>
     <stop stop-color="#ffff53" path="c 0,-213.776  0,-427.553  0.0033,-641.327"/>
    </meshpatch>
   </meshrow>
  </meshgradient>
  <meshgradient id="meshgradient6572" x="-1599.7332" y="545.58734" gradientTransform="translate(-202.52 38.255)" gradientUnits="userSpaceOnUse">
   <meshrow>
    <meshpatch>
     <stop stop-color="#fff" path="c 165.508,0  331.016,0  496.524,0"/>
     <stop stop-color="#ff0" path="c 0,181.422  9.00082,315.591  -36.0044,497.011"/>
     <stop stop-color="#fff" path="c -165.508,38.2562  -295.014,47.2574  -460.522,47.2574"/>
     <stop stop-color="#ff0" path="c 0,-181.422  0,-362.844  0.0024,-544.269"/>
    </meshpatch>
   </meshrow>
  </meshgradient>
 </defs>
 <metadata>
  <rdf:RDF>
   <cc:Work rdf:about="">
    <dc:format>image/svg+xml</dc:format>
    <dc:type rdf:resource="http://purl.org/dc/dcmitype/StillImage"/>
    <dc:title/>
   </cc:Work>
  </rdf:RDF>
 </metadata>
 <g transform="translate(-25.425 -21.648)">
  <rect transform="rotate(40.942)" x="-880.76" y="614.84" width="18" height="130" stroke-width=".34474"/>
  <rect transform="matrix(.75841 .65177 -.65881 .75231 0 0)" x="-854.54" y="603.94" width="19.743" height="142.4" stroke-width=".37786"/>
  <rect transform="rotate(40.942)" x="-832.57" y="614.01" width="18" height="130" stroke-width=".34474"/>
  <path transform="matrix(.19945 -.14116 .14116 .19945 -1178.4 -5.0854)" d="m139.1 279.24-236.45-69.107 178.07-170.22z" stroke-width=".26458"/>
  <rect transform="rotate(40.012)" x="-891.34" y="558.57" width="67.328" height="38.765" stroke-width=".35704"/>
  <rect x="-1223.1" y="112.51" width="18" height="132" stroke-width=".20199"/>
  <rect x="-1203.1" y="107.51" width="20" height="140" stroke-width=".21927"/>
  <rect x="-1181.1" y="112.51" width="18" height="132" stroke-width=".20199"/>
  <path transform="matrix(.4545 -.88532 .92104 .43661 -1238.7 183.08)" d="m-25.123 94.41-58.297-3.7598 32.405-48.607z" stroke-width=".26458"/>
  <rect x="-1223.2" y="85.511" width="60" height="25" stroke-width=".3088"/>
  <rect transform="rotate(45)" x="-871.4" y="1078.3" width="18" height="132" fill="#ff0" stroke-width=".20199"/>
  <rect transform="rotate(45)" x="-851.4" y="1073.3" width="20" height="140" fill="#f5f500" stroke-width=".21927"/>
  <rect transform="rotate(45)" x="-829.4" y="1078.3" width="18" height="132" fill="#e6e600" stroke-width=".20199"/>
  <path transform="matrix(.94739 -.30463 .34254 .96 -1439.5 185.22)" d="m-25.123 94.41-58.297-3.7598 32.405-48.607z" stroke-width=".26458"/>
  <rect transform="rotate(45)" x="-871.46" y="1051.3" width="60" height="25" fill="#ff009c" stroke-width=".3088"/>
  <rect x="30.199" y="-550.35" width="16" height="130" stroke-width=".18899"/>
  <rect x="50.199" y="-556.35" width="20" height="140" stroke-width=".21927"/>
  <rect x="74.199" y="-550.35" width="16" height="130" stroke-width=".18899"/>
  <path transform="matrix(.4545 -.88585 .92104 .43687 14.662 -480.85)" d="m-25.123 94.41-58.297-3.7598 32.405-48.607z" stroke-width=".26458"/>
  <rect x="30.199" y="-578.35" width="60" height="25" stroke-width=".3088"/>
  <rect transform="rotate(45)" x="-724.74" y="1134.6" width="16" height="130" fill="#ff0" stroke-width=".18899"/>
  <rect transform="rotate(45)" x="-704.74" y="1128.6" width="20" height="140" fill="#f5f500" stroke-width=".21927"/>
  <rect transform="rotate(45)" x="-681.74" y="1134.6" width="16" height="130" fill="#ebeb00" stroke-width=".18899"/>
  <path transform="matrix(.94739 -.30463 .34254 .96 -1374.9 328.03)" d="m-25.123 94.41-58.297-3.7598 32.405-48.607z" stroke-width=".26458"/>
  <rect transform="rotate(45)" x="-724.74" y="1106.6" width="60" height="25" fill="#ff009c" stroke-width=".3088"/>
  <rect x="25.425" y="49.649" width="16" height="130" stroke-width=".18899"/>
  <rect x="45.425" y="43.648" width="20" height="140" stroke-width=".21927"/>
  <rect x="69.425" y="49.649" width="16" height="130" stroke-width=".18899"/>
  <path transform="matrix(.4545 -.88585 .92104 .43687 9.8888 119.15)" d="m-25.123 94.41-58.297-3.7598 32.405-48.607z" stroke-width=".26458"/>
  <rect x="25.425" y="21.648" width="60" height="25" stroke-width=".3088"/>
  <rect x="-726.69" y="124.33" width="16" height="104.74" stroke-width=".16964"/>
  <rect x="-706.69" y="119.5" width="20" height="112.8" stroke-width=".19682"/>
  <rect x="-682.69" y="124.33" width="16" height="104.74" stroke-width=".16964"/>
  <path transform="matrix(.4545 -.71372 .92104 .35198 -742.23 180.33)" d="m-25.123 94.41-58.297-3.7598 32.405-48.607z" stroke-width=".26458"/>
  <rect x="-726.69" y="101.78" width="60" height="20.142" stroke-width=".27718"/>
  <flowRoot transform="matrix(2.6267 0 0 5.3883 -4024.8 -2470.5)" fill="#000000" font-size="40px" font-weight="bold" letter-spacing="0px" word-spacing="0px" style="line-height:1.25" xml:space="preserve"><flowRegion font-family="'Simplified Arabic Fixed'"><rect x="1205.8" y="466.72" width="1157.7" height="508.18"/></flowRegion><flowPara font-family="DilleniaUPC">NO</flowPara></flowRoot>
  <flowRoot transform="matrix(1.8509 0 0 4.3617 -2897.7 -1966.7)" fill="#000000" font-family="sans-serif" font-size="40px" letter-spacing="0px" word-spacing="0px" style="line-height:1.25" xml:space="preserve"><flowRegion><rect x="1205.8" y="466.72" width="1157.7" height="508.18"/></flowRegion><flowPara font-family="DilleniaUPC" font-weight="bold">E</flowPara></flowRoot>
  <flowRoot transform="matrix(1.993 0 0 2.3036 -2815.2 -1220.8)" fill="#000000" font-family="sans-serif" font-size="40px" letter-spacing="0px" word-spacing="0px" style="line-height:1.25" xml:space="preserve"><flowRegion><rect x="1205.8" y="466.72" width="1157.7" height="508.18"/></flowRegion><flowPara font-family="'Segoe UI Emoji'" font-weight="bold"><flowSpan font-size="32.929px">-</flowSpan><flowSpan font-family="DilleniaUPC" font-size="47.417px" font-weight="bold">it</flowSpan></flowPara></flowRoot>
  <rect x="-757.64" y="-162.03" width="16" height="112.66" stroke-width=".17593"/>
  <rect x="-737.64" y="-166.08" width="20" height="117" stroke-width=".20045"/>
  <rect x="-712.85" y="-162.03" width="15.204" height="112.66" stroke-width=".1715"/>
  <path transform="matrix(.24981 -.53642 .50624 .26455 -752.66 -64.469)" d="m-25.123 94.41-58.297-3.7598 32.405-48.607z" stroke-width=".26458"/>
  <rect x="-767.64" y="-184.63" width="80" height="20" stroke-width=".31892"/>
  <flowRoot transform="matrix(4.5762 0 0 7.54 -4931.2 -3675)" fill="#000000" font-family="sans-serif" font-size="40px" letter-spacing="0px" word-spacing="0px" style="line-height:1.25" xml:space="preserve"><flowRegion><rect x="1205.8" y="466.72" width="1157.7" height="508.18"/></flowRegion><flowPara font-family="DilleniaUPC" font-weight="bold"/></flowRoot>
  <flowRoot transform="matrix(5.5009 0 0 7.8172 -7326.1 -3978.3)" fill="#000000" font-size="40px" font-weight="bold" letter-spacing="0px" word-spacing="0px" style="line-height:1.25" xml:space="preserve"><flowRegion font-family="'Simplified Arabic Fixed'"><rect x="1205.8" y="466.72" width="1157.7" height="508.18"/></flowRegion><flowPara font-family="DilleniaUPC"><flowSpan font-size="39.272px">O</flowSpan>D<flowSpan font-size="39.272px">O</flowSpan></flowPara></flowRoot>
  <flowRoot transform="matrix(.26458 0 0 .26458 30.199 21.648)" fill="#000000" font-family="sans-serif" font-size="40px" letter-spacing="0px" word-spacing="0px" style="line-height:1.25" xml:space="preserve"><flowRegion><rect x="-1416.1" y="3064.1" width="1709.5" height="1241.7"/></flowRegion><flowPara/></flowRoot>
  <rect transform="rotate(30)" x="-632.92" y="306.06" width="4.0625" height="30.101" stroke-width=".045823"/>
  <rect transform="matrix(-.86603 .5 .5 .86603 0 0)" x="627.39" y="-421.58" width="4.0625" height="30.101" stroke-width=".045823"/>
  <g transform="translate(-67.508 29.254)">
   <rect x="-524.37" y="469.17" width="496.52" height="544.27" ry="0" fill="url(#meshgradient6529)" stroke-width=".22454"/>
   <g transform="translate(-439.17 607.83)" fill="#3c3c1e">
    <flowRoot transform="matrix(1.993 0 0 2.3036 -2091.7 -1085)" font-family="sans-serif" font-size="40px" letter-spacing="0px" word-spacing="0px" style="line-height:1.25" xml:space="preserve"><flowRegion><rect x="1205.8" y="466.72" width="1157.7" height="508.18" fill="#3c3c1e"/></flowRegion><flowPara font-family="'Segoe UI Emoji'" font-weight="bold"><flowSpan font-size="32.929px">-</flowSpan><flowSpan font-family="DilleniaUPC" font-size="47.417px" font-weight="bold">it</flowSpan></flowPara></flowRoot>
    <rect x="-34.179" y="-26.203" width="16" height="112.66" stroke-width=".17593"/>
    <rect x="-14.179" y="-30.256" width="20" height="117" stroke-width=".20045"/>
    <rect x="10.617" y="-26.203" width="15.204" height="112.66" stroke-width=".1715"/>
    <path transform="matrix(.24981 -.53642 .50624 .26455 -29.194 71.357)" d="m-25.123 94.41-58.297-3.7598 32.405-48.607z" stroke-width=".26458"/>
    <rect x="-44.18" y="-48.803" width="80" height="20" stroke-width=".31892"/>
    <flowRoot transform="matrix(5.5009 0 0 7.8172 -6602.7 -3842.5)" font-size="40px" font-weight="bold" letter-spacing="0px" word-spacing="0px" style="line-height:1.25" xml:space="preserve"><flowRegion font-family="'Simplified Arabic Fixed'"><rect x="1205.8" y="466.72" width="1157.7" height="508.18" fill="#3c3c1e"/></flowRegion><flowPara font-family="DilleniaUPC"><flowSpan fill="#3c3c1e" font-size="39.272px">O</flowSpan>D<flowSpan fill="#3c3c1e" font-size="39.272px">O</flowSpan></flowPara></flowRoot>
    <rect transform="rotate(30)" x="61.526" y="61.96" width="4.0625" height="30.101" stroke-width=".045823"/>
    <rect transform="matrix(-.86603 .5 .5 .86603 0 0)" x="68.764" y="57.781" width="4.0625" height="30.101" stroke-width=".045823"/>
   </g>
  </g>
  <rect x="-1802.3" y="583.84" width="496.52" height="544.27" ry="0" fill="url(#meshgradient6572)" stroke-width=".22454"/>
 </g>
</svg>
